<?xml version="1.0" encoding="utf-8"?>
<!-- Generator: Adobe Illustrator 18.1.1, SVG Export Plug-In . SVG Version: 6.00 Build 0)  -->
<svg version="1.1" id="Layer_1" xmlns="http://www.w3.org/2000/svg" xmlns:xlink="http://www.w3.org/1999/xlink" x="0px" y="0px"
	 viewBox="0 318.5 612 155" enable-background="new 0 318.5 612 155" xml:space="preserve">
<rect x="0" y="343.6" fill-rule="evenodd" clip-rule="evenodd" fill="#DB2B36" width="105.6" height="105.9"/>
<path fill-rule="evenodd" clip-rule="evenodd" fill="#FFFFFF" d="M93.9,363.7l-11.9,19.2c-1.3,2.2-1.1,3.8-0.5,5.5l18,46.1H25
	c-6.7,0-11.9-5.4-11.9-11.8L13,361.3c0.2-7.9,11.7-8.1,11.9,0v57.5c0,1.8,1.6,3.9,3.7,3.8h54.6l-14.1-33.3c-0.4-1.3-0.6-2.5-0.6-3.8
	c0-1.4,0.6-3.7,1.5-5.5l13-21.4c1-1.9,2.9-3.2,5.2-3.3c3.2-0.1,6,2.1,6.1,5.5C94.4,361.5,94.3,363,93.9,363.7"/>
<path fill-rule="evenodd" clip-rule="evenodd" fill="#FFFFFF" d="M52.8,402.4v-41.1c0-8,11.7-8.1,11.8,0v41.6
	c0,9.5-7.1,15.8-15.8,15.8c-8.7,0-15.8-6.4-15.8-15.8v-41.6c0-8,11.8-8,11.8,0v41.1C44.8,407.9,52.8,408.3,52.8,402.4"/>
<path fill-rule="evenodd" clip-rule="evenodd" d="M195.7,356.3v77.6H174v-59h-15.5v30.6c0,11.2-1.1,29.4-28.1,29.4
	c-3.2,0-5.7-0.1-9.1-1v-18.6c1.7,0.4,3.2,0.8,4.8,0.8c9.5,0,10.7-6,10.7-17v-42.8H195.7z"/>
<polygon fill-rule="evenodd" clip-rule="evenodd" points="229.3,356.3 244.5,388.9 256.9,356.3 280.5,356.3 245.6,433.9 
	222.3,433.9 232.8,412.5 203.7,356.3 "/>
<polygon fill-rule="evenodd" clip-rule="evenodd" points="287.7,356.3 309.4,356.3 309.4,388.9 332.8,356.3 358.3,356.3 
	328.8,393.9 359,433.9 331.9,433.9 309.4,400.5 309.4,433.9 287.7,433.9 "/>
<path fill-rule="evenodd" clip-rule="evenodd" d="M477.2,356.3v46.5l30-46.5h21.3v77.6h-20.9v-46.5l-30,46.5h-21.3v-77.6H477.2z
	 M515.7,339.7c-4.2,9.1-14.1,12.4-23.3,12.4c-9.2,0-19.1-3.3-23.3-12.4l12.4-4.7c2,5.3,6.9,6.5,10.9,6.5c4,0,8.9-1.2,10.9-6.5
	L515.7,339.7z"/>
<path fill-rule="evenodd" clip-rule="evenodd" d="M611.2,356.3v77.6h-21.7v-59H574v30.6c0,11.2-1.1,29.4-28.1,29.4
	c-3.2,0-5.7-0.1-9.1-1v-18.6c1.7,0.4,3.2,0.8,4.8,0.8c9.5,0,10.7-6,10.7-17v-42.8H611.2z"/>
<path fill-rule="evenodd" clip-rule="evenodd" d="M359.9,395.1c0-21.3,13.7-42.1,42.8-42.1c29.1,0,42.8,20.8,42.8,42.1
	c0,21.3-13.6,42.1-42.8,42.1C373.6,437.2,359.9,416.4,359.9,395.1 M422.5,395.1c0-15.4-9.5-23-19.8-23c-10.4,0-19.8,7.6-19.8,23
	c0,15.4,9.4,23,19.8,23C413.1,418.1,422.5,410.5,422.5,395.1z"/>
</svg>
